<svg width="197" height="40" viewBox="0 0 197 40" fill="none" xmlns="http://www.w3.org/2000/svg">
<path d="M62.9821 24.0757H54.6662V25.9966C54.6662 28.0613 52.9876 29.7411 50.9243 29.7411H10.2497V14.2788C10.2497 12.2182 11.9262 10.5404 13.9915 10.5404H28.5095V2.21867C28.5095 1.53177 28.6391 0.879322 28.8861 0.283607H13.9915C6.26075 0.283607 0 6.54874 0 14.2788V39.9979H50.9243C58.6551 39.9979 64.9158 33.7267 64.9158 25.9966V23.6988C64.3205 23.944 63.6665 24.0757 62.9821 24.0757Z" fill="#B7B7B7"/>
<path d="M62.9841 0.281578H33.7052C32.6381 0.281578 31.7715 1.14678 31.7715 2.21664V18.8784C31.7715 19.9462 32.6381 20.8135 33.7052 20.8135H62.9841C64.0512 20.8135 64.9178 19.9462 64.9178 18.8784V2.21664C64.9178 1.14678 64.0512 0.281578 62.9841 0.281578ZM33.8226 15.3791C33.936 15.2656 34.094 15.1947 34.2681 15.1947H45.7691C46.1173 15.1947 46.4008 15.4763 46.4008 15.8249C46.4008 15.9991 46.33 16.1572 46.2166 16.2706C46.1011 16.3841 45.9432 16.455 45.7691 16.455H34.2681C33.9198 16.455 33.6384 16.1734 33.6384 15.8249C33.6384 15.6506 33.7092 15.4926 33.8226 15.3791ZM58.979 19.0243C58.8636 19.1378 58.7057 19.2087 58.5336 19.2087H34.2681C33.9198 19.2087 33.6384 18.927 33.6384 18.5785C33.6384 18.4043 33.7092 18.2462 33.8226 18.1327C33.936 18.0193 34.094 17.9484 34.2681 17.9484H58.5336C58.8798 17.9484 59.1633 18.23 59.1633 18.5785C59.1633 18.7528 59.0924 18.9108 58.979 19.0243Z" fill="#3E3F43"/>
<path d="M70.8965 39.998V0.00203705H81.6564V39.998H70.8965ZM101.886 39.998L85.5299 23.2004C84.5458 22.0921 84.0538 21.2309 84.0538 19.9402V18.9555C84.0538 17.7863 84.5458 16.678 85.4671 15.6953L101.269 0.00406329H115.042L95.7957 19.3243L116.026 40H101.886V39.998Z" fill="#B7B7B7"/>
<path d="M158.362 0C158.285 0.121574 158.21 0.247201 158.137 0.37688L152.68 10.2791H134.967C129.372 10.2791 125.254 14.2141 125.254 19.999C125.254 25.7211 129.374 29.6601 134.967 29.6601H141.997L136.301 39.998H135.706C123.472 39.998 114.555 31.9356 114.555 19.999C114.555 8.06038 123.47 0 135.706 0H158.362Z" fill="#B7B7B7"/>
<path d="M184.424 39.998L181.103 33.8443H162.349L166.899 25.2915H176.553L169.727 12.431L155.094 39.998H143.227L163.641 2.95426C164.748 0.984752 166.346 0 168.438 0H170.896C172.985 0 174.585 0.984752 175.693 2.95426L196.107 39.998H184.424Z" fill="#B7B7B7"/>
</svg>
