<svg width="22" height="22" viewBox="0 0 22 22" fill="none" xmlns="http://www.w3.org/2000/svg">
<g opacity="0.4">
<path d="M13.7502 2.75C14.2564 2.75 14.6668 3.16041 14.6668 3.66667V5.5H19.2502C19.7564 5.5 20.1668 5.91041 20.1668 6.41667V18.3333C20.1668 18.8396 19.7564 19.25 19.2502 19.25H2.75016C2.24391 19.25 1.8335 18.8396 1.8335 18.3333V6.41667C1.8335 5.91041 2.24391 5.5 2.75016 5.5H7.3335V3.66667C7.3335 3.16041 7.74391 2.75 8.25016 2.75H13.7502ZM7.3335 7.33333H5.50016V17.4167H7.3335V7.33333ZM16.5002 7.33333H14.6668V17.4167H16.5002V7.33333ZM12.8335 4.58333H9.16683V5.5H12.8335V4.58333Z" fill="currentColor"/>
</g>
</svg>
